<?xml version="1.0" ?><svg xmlns="http://www.w3.org/2000/svg" xmlns:xlink="http://www.w3.org/1999/xlink" version="1.1" viewBox="0 0 512 512" style="enable-background:new 0 0 512 512;" xml:space="preserve"><g id="_x32_3_x2C____folder_x2C__office_material_x2C__school_material_x2C__binder_x2C__storage_x2C__education"><g id="XMLID_350_"><path id="XMLID_619_" style="fill:#E06C6C;" d="M421,11H301c-5.52,0-10,4.48-10,10v420c0,5.52,4.48,10,10,10h45.82l84.08-109.39    c0.03,0,0.07,0.01,0.1,0.01V21C431,15.48,426.52,11,421,11z"/><path id="XMLID_618_" style="fill:#E06C6C;" d="M430.9,341.61"/><path id="XMLID_617_" style="fill:#E06C6C;" d="M390.72,346.94"/><path id="XMLID_616_" style="fill:#F5E17E;" d="M390.72,346.94c-0.5,0.2-1,0.41-1.49,0.63    C389.72,347.34,390.22,347.13,390.72,346.94z"/><path id="XMLID_615_" style="fill:#963545;" d="M390.72,346.94c-15.206,5.778-30.604,19.377-38.28,32.81    C340.04,376.07,331,364.59,331,351c0-16.57,13.43-30,30-30C376.19,321,388.75,332.29,390.72,346.94z"/><path id="XMLID_614_" style="fill:#F5E17E;" d="M389.23,347.57"/><path id="XMLID_613_" style="fill:#E06C6C;" d="M346.12,449.2"/><path id="XMLID_612_" style="fill:#E06C6C;" d="M344.93,396.2c-0.25,0.76-0.49,1.53-0.71,2.29    C344.44,397.72,344.67,396.96,344.93,396.2z"/><path id="XMLID_611_" style="fill:#E06C6C;" d="M344.22,398.49"/><path id="XMLID_697_" style="fill:#F5E17E;" d="M291,21v420c0,5.52-4.48,10-10,10H161c-5.52,0-10-4.48-10-10V21    c0-5.52,4.48-10,10-10h120C286.52,11,291,15.48,291,21z"/><path id="XMLID_695_" style="fill:#A0D0F3;" d="M151,21v420c0,5.52-4.48,10-10,10H21c-5.52,0-10-4.48-10-10V21    c0-5.52,4.48-10,10-10h120C146.52,11,151,15.48,151,21z"/><rect id="XMLID_608_" x="331" y="51" style="fill:#DC435B;" width="60" height="200"/><rect id="XMLID_607_" x="191" y="51" style="fill:#E59C37;" width="60" height="200"/><rect id="XMLID_606_" x="51" y="51" style="fill:#7A9FF1;" width="60" height="200"/><circle id="XMLID_605_" style="fill:#E9BC3E;" cx="221" cy="351" r="30"/><circle id="XMLID_604_" style="fill:#5272D0;" cx="81" cy="351" r="30"/><path id="XMLID_603_" style="fill:#7A9FF1;" d="M501,421c0,44.18-35.82,80-80,80c-59.504,0-98.457-62.933-71.26-116.39    c0.01-0.01,0.01-0.02,0.01-0.03C389.896,308.441,501,339.278,501,421z"/><g id="XMLID_351_"><path id="XMLID_372_" d="M41,41v220h80V41H41z M101,241H61V61h40V241z"/><path id="XMLID_369_" d="M181,41v220h80V41H181z M241,241h-40V61h40V241z"/><path id="XMLID_366_" d="M401,41h-80v220h80V41z M381,241h-40V61h40V241z"/><path id="XMLID_363_" d="M81,311c-22.056,0-40,17.944-40,40s17.944,40,40,40s40-17.944,40-40S103.056,311,81,311z M81,371     c-11.028,0-20-8.972-20-20s8.972-20,20-20s20,8.972,20,20S92.028,371,81,371z"/><path id="XMLID_360_" d="M221,311c-22.056,0-40,17.944-40,40s17.944,40,40,40s40-17.944,40-40S243.056,311,221,311z M221,371     c-11.028,0-20-8.972-20-20s8.972-20,20-20s20,8.972,20,20S232.028,371,221,371z"/><path id="XMLID_353_" d="M441,333.243V21c0-11.028-8.972-20-20-20C399.961,1,31.671,1,21,1C9.972,1,1,9.972,1,21v420     c0,11.028,8.972,20,20,20c35.947,0,284.55,0,319.394,0c14.753,29.608,45.341,50,80.606,50c49.626,0,90-40.374,90-90     C511,378.246,481.032,342.362,441,333.243z M21,441V21h120v419.999C41.385,441,21.835,441,21,441z M161,441V21h120v419.999     C181.385,441,161.835,441,161,441z M301,441V21h120v310c-8.209,0-16.162,1.111-23.723,3.179C390.863,320.409,376.854,311,361,311     c-22.056,0-40,17.944-40,40c0,13.523,6.965,25.968,17.844,33.266c-8.13,18.112-9.841,38.122-5.601,56.734H301z M349.046,366.999     C344.116,363.29,341,357.391,341,351c0-11.028,8.972-20,20-20c7.55,0,14.259,4.263,17.649,10.607     C367.028,347.832,356.923,356.531,349.046,366.999z M421,491c-38.598,0-70-31.402-70-70s31.402-70,70-70s70,31.402,70,70     S459.598,491,421,491z"/><path id="XMLID_586_" d="M440.929,393.929l-38.284,38.284l-11.07-11.071c-3.904-3.903-10.234-3.904-14.143,0     c-3.905,3.905-3.905,10.237,0,14.143l18.142,18.143c3.903,3.903,10.236,3.904,14.143,0l45.355-45.355     c3.905-3.905,3.905-10.237,0-14.143C451.165,390.024,444.835,390.024,440.929,393.929z"/></g></g></g><g id="Layer_1"/></svg>